<svg xmlns="http://www.w3.org/2000/svg" width="720" height="380" viewBox="0 0 720 380" font-family="Segoe UI,Helvetica,Arial,sans-serif">
<rect width="720" height="380" fill="#161a22"/>
<text x="52" y="24" fill="#e6ecf5" font-size="16" font-weight="700">Why experience gates everything: Base CTH vs exp level</text>
<text x="52" y="40" fill="#93a1b5" font-size="12">Marks/Dex/Wis fixed at 70. Base CTH (skill part, max 33) is dominated by exp x10; the cap is not.</text>
<line x1="52" y1="336" x2="702" y2="336" stroke="#242d3d"/>
<text x="44" y="340" fill="#93a1b5" font-size="11" text-anchor="end">0</text>
<line x1="52" y1="278" x2="702" y2="278" stroke="#242d3d"/>
<text x="44" y="282" fill="#93a1b5" font-size="11" text-anchor="end">20</text>
<line x1="52" y1="220" x2="702" y2="220" stroke="#242d3d"/>
<text x="44" y="224" fill="#93a1b5" font-size="11" text-anchor="end">40</text>
<line x1="52" y1="162" x2="702" y2="162" stroke="#242d3d"/>
<text x="44" y="166" fill="#93a1b5" font-size="11" text-anchor="end">60</text>
<line x1="52" y1="104" x2="702" y2="104" stroke="#242d3d"/>
<text x="44" y="108" fill="#93a1b5" font-size="11" text-anchor="end">80</text>
<line x1="52" y1="46" x2="702" y2="46" stroke="#242d3d"/>
<text x="44" y="50" fill="#93a1b5" font-size="11" text-anchor="end">100</text>
<line x1="52" y1="46" x2="52" y2="336" stroke="#1e2634"/>
<text x="52" y="352" fill="#93a1b5" font-size="11" text-anchor="middle">0</text>
<line x1="377" y1="46" x2="377" y2="336" stroke="#1e2634"/>
<text x="377" y="352" fill="#93a1b5" font-size="11" text-anchor="middle">5</text>
<line x1="702" y1="46" x2="702" y2="336" stroke="#1e2634"/>
<text x="702" y="352" fill="#93a1b5" font-size="11" text-anchor="middle">10</text>
<text x="377" y="374" fill="#93a1b5" font-size="11" text-anchor="middle">experience level</text>
<polyline fill="none" stroke="#ff6b6b" stroke-width="2.6" points="117.0,297.3 182.0,292.5 247.0,287.7 312.0,282.8 377.0,278.0 442.0,273.2 507.0,268.3 572.0,263.5 637.0,258.7 702.0,253.8"/>
<rect x="506" y="51" width="16" height="4" fill="#ff6b6b"/>
<text x="527" y="55" fill="#cdd6e4" font-size="11.5">Base CTH (skill, max 33)</text>
<polyline fill="none" stroke="#54d98c" stroke-width="2.6" points="117.0,157.9 182.0,153.7 247.0,149.6 312.0,145.4 377.0,141.3 442.0,137.1 507.0,133.0 572.0,128.9 637.0,124.7 702.0,120.6"/>
<rect x="506" y="70" width="16" height="4" fill="#54d98c"/>
<text x="527" y="74" fill="#cdd6e4" font-size="11.5">CTH cap (max possible)</text>
</svg>